<mxfile host="app.diagrams.net" agent="Mozilla/5.0 (Windows NT 10.0; Win64; x64) AppleWebKit/537.36 (KHTML, like Gecko) Chrome/140.0.0.0 Safari/537.36" version="28.2.5">
  <diagram name="Page-1" id="igK5o3DmKz5cyx3DFKKO">
    <mxGraphModel dx="1042" dy="527" grid="1" gridSize="10" guides="1" tooltips="1" connect="1" arrows="1" fold="1" page="1" pageScale="1" pageWidth="827" pageHeight="1169" math="0" shadow="0">
      <root>
        <mxCell id="0" />
        <mxCell id="1" parent="0" />
        <mxCell id="Tk4esoPN8NTOjXC0fPBP-1" value="Sequence Diagram Teks" style="shape=umlFrame;whiteSpace=wrap;html=1;pointerEvents=0;width=163;height=29;" parent="1" vertex="1">
          <mxGeometry x="237" y="181" width="553" height="279" as="geometry" />
        </mxCell>
        <mxCell id="yW8plJzi33yYYhuLXs_Q-4" value="" style="shape=image;verticalLabelPosition=bottom;labelBackgroundColor=default;verticalAlign=top;aspect=fixed;imageAspect=0;image=data:image/png,iVBORw0KGgoAAAANSUhEUgAAAhEAAADlCAMAAADa3FUGAAAAAXNSR0IArs4c6QAAAARnQU1BAACxjwv8YQUAAAMAUExURf///2Nra97m5s7WznNza729vd7e3vfv94yUjJylpUpKSubv5mNaWoyEjHuEe62trXN7e1JaUpyUlFJKUrW1tc7FzsW9xUJCOjoxOpRjWggACL06WkIQGb0QWqXO5lIZrXOc5lKtY1Ip3hneMRlarRmcMRkZrRlaMRnvYxlr3hmtYxkp3oxa74zeMYwxlIwZ74ycMVLe5lLOY1JK3qVjlFKc5lKMY1II3hnOYxlK3hmMYxkI3sVjWoRjnO9ajO9aOu8ZjO8ZOu+cjO+cOu9aY+9aEO8ZY+8ZEO+cY++cEKXv5r1a773eMcWUY70xlL0Z772cMTFaWpzvpRApUqWUYxAIUu9C5u8Q5oSUWu9Cte8Qte9z5u9zte/ejO/eOu/eY+/eEL2clCkxMRAhEIw6Ge/FvYwQGRDvpRCtpWs6GWsQGRDOpRCMpe+l5u+ltRAhIZRjKZRjCMWc74w6Wr06KYzvc+/mvZyc74wQWr0QKYzFcxDv5lLvEFJrjBCt5lKtEFIpjBnvEBlrjBmtEBkpjBlrEIxrzozvEIwQpYwpzoytEMWczms6Wr06CIzvUpyczmsQWr0QCIzFUhDO5lLOEFJKjBCM5lKMEFIIjBnOEBlKjBmMEBkIjBlKEIxKzozOEIwQhIwIzoyMECkpITHvpTGtpXPvpXOtpVLvpVKtpTHOpTGMpXPOpXOMpVLOpVKMpb3vc8VjKWtjOkprEL3Fc0IQY71rzr3vEL0Qpb0pzr2tEBBrWpzOtWtjEL3vUsVjCEpKEL3FUkIQQr1Kzr3OEL0QhL0Izr2MEBBKWpzOlHPv5lLvc1Jr7zHv5sVjpVLvMVJrrcXmtTGt5lKtMXPO5lLvUlJrzjHO5sVjhFLOMVJKrcXmlDGM5lKMMUIxWkoxGe/O787m70pjOsWUte//Ou//vZyUtYRae87F5oSce8W9nFJra2tzWoyllM7vzpSttZytlO/m3nNaa/fm7+bv92Naa2Nza/fv5s69vYx7e97m9+b//4yEe4yUnN7v3gAAACUG1/sAAAEAdFJOU////////////////////////////////////////////////////////////////////////////////////////////////////////////////////////////////////////////////////////////////////////////////////////////////////////////////////////////////////////////////////////////////////////////////////////////////////////////////////////////////////////////////////wBT9wclAAAACXBIWXMAAA7DAAAOwwHHb6hkAAAj9klEQVR4Xu2d/VLqPBPAN2IibojJroRmuLzTCzgX1Xtjzoz/QDnw4qDMO2nxqBWVIh/h0R9+QGhL2i6bzWazAXiNZkJ0vlF6EFSBXyI0D7gLF1+sxPYE0fzsg/D3iyeUN46nbu1fAN8bN8oPwcA1S9ohdLNkB/wXK7E92kybRYdAffGEbhuvha3+6dkRtMRXb8ZeJKLzxUpsz1dv1ZZMvqiK8PVL+VRrefP6jUPwZYnYx3fuq5XYniNJhNqvRHCtIgDU/d/X7xyAxRcv0V50hCqbJYdC3e+jvp+yZx3xLBFfvFvb4C+bJe3Yj474YiW25xiXdP864l+rcQxl+tXP2IuOOKIdYfZR30/Zs0RosbYoe/L1G4fgn/jtyJnpiCPJ3lebwYZEwIKiKChhGuWH4LvpiPt9SPCn7FlHxNt06dzlkzlxUJqW5cS4+0qzdvj1G++wHx2xtUSYGwb/ombcUiBPaEeo9YXdhjcSAeDRbrv312jeDC0L8lp6MAFkH8BLpSZeTqwEraRaNBuy/eiIbZUsOU8Dk8kJKKu0vR/kRgH0JWi7XSfiSHbEasMJcSFRaC/1tK8gXmHw1fXd9JXaIBHgNm14AN7YEX8LD67EjnvoC2SZucLMCxYuSM4pF0VDJGb7qOe2rYatfOYiEHnh0P8iW4igHN2aaT7b6lb7I7h43tERTNBH85sHVNIfgaQszYwMtMk2eCERktegeXqmXm66d94Ydaq48MU4OLJYukAMhSQGaTN2s0HQodGW7UVHvKnEO8x7ALAM1gbNXCjyjyWgCdqHC9zOv3skHbHJH8GBAzPB/R2IeyrMlMhkdiiaWjfyQiIsX4/GozFfZzfXXD3Ghz2Fph0BBsEWo64NMtzwdRiswgCVxMdCkmWhioaAxnv0ZbbVESWBEv2gnTDCBY+azDJwBoxyk57dgHJXzaJDsFFH/LruwyOB64FwnnNHvWteWSo23OBNZ+M2bHcImnYEzAg0uUvOlkYIeTkj7AewwRU2qFsnQ6OVEJPXr3di285aBw09MMItix6RLGzIyGmco5f5pq/aW9TNPlq5T9koEfE2GwRFjrwz2UiS4MVdiRvu9CaJEIdtLP7xxo7oTAAmfa0VgPWaRGF0B0BKpdW0UxW/Yj+txrxZ8g7Kelgp8MuplFMY+I6XALrvAWSzYps5YV/jItYwXj9lp6D7i2hVAizkpgu4SSLK7c7wy3zShFvDH4+t7EUitm01vs6RxjW2VXrvsUki5seSiC/ejL30NT4Ryz3y53R9jTZskohjtRpfvRl70RFfFcvtOZaOOIBEHKvVeGNHtGQvPsvOF8VyezrnqyPOpdXYi474arO7PUfyR3z1hDZJxLFajTf+iJb09qEjtu5rfJlj+SO+eEKnlIgk7Igj9jWO44/Y5LNswyaJ+FZ2xFfFcnu8WTaLDsGPHfFFvlqJ7ZkcZwTxEBJB243cfJlOuBSinIv36DUL/lHGn3JT3Vujqko0P+Az3q/a+/SOo42moZx/dD6zd+tezkU5L4vmAQFszx1FvQFMVEepjpr4xk/16ChhVP20+eio+FD7GNaIlVBKTTbU4k2N6o/2E6/6FP/Xz7f9r9Q+VNoW6HhCz8SPfvnr3FOpWpe85m0tpQC+bxaehEWnWZIK0+3Gtk7K1dNPA7+o33xm42bP6NhmrGd2/fADgIvCoEQKX8/FkSzc9ugz0BHv4VtaiY91g7HovW1Ojk4lnEnyVb/gKeFus+RDPK0l4XFTCN6R8enqiJbfs5RQrdT/qvfvJqT7Bf3hiIjRv6cKT/4Ntcl+EyfXzZLzQbaxgezDixeL8tSmhElWTR0pQO4g8HbToyokveqWPr6Uj1OwOrVIvovej3PsJFxsf1UrT8RLRP/16x++F1euKQCrWSuzdO9wmxbvqKgEemK7Yrdui3VTINo7M/bMv/QmyaGOEyB3EEYt7IjU2L7BOzoJV+1TjjSMeQj+Jnvdr5Kt2efo/zVLzgeTrh3xTXqfqZGwZXnGV1V+bp15e6QMIj+cB6pwdAtQzRXVANP4R68q40mDjq82hNUchVN97ue8mZR8RqhP664CQOEdOd2bIWukIGUgVDRg1w/iVvcpnEZ9pzvY9tXo1lPyuR2hfklGDouij8YSh2WwxDIoHDDZoIP0pjjNBYj5ktJkmqysfs7g06+3KoT4M86N89S3ZAiI0aqg0I9nFjVaYnfGASI/tEYVk9h0WKfDeIQycCENuaDJEdlsGkZoAjV3Ogo/UXWHoPOp5tWjaMBJJ8FOOlZlLvyxKAJ4w1LZ5Xjib07kGLhJVjefsx3R/dSOeI0OeTEWw7zlbgch4ai6QbPkfFCf6ogGt1Xawtu2u/3wn6XWhydqJ16TcFTdc/Th2dEqqi4yq/7etN3tECRsRxxnCudB4MdmySfUE67N22CJ49Mi/uvInLPPctUyInBatxpJ6IgfkmCtI1JQ2AmPfX6LqLo1dbLpJHREEubtRtSpw9S/wOfjGg1qHeGSuBnJ2hEJ1+xzWkbVTUU1ZyOJr6f+KKvBSTnrqLq2uY/qVuOhbWNzCBKOxT7jqDrbttWoB7WSsCM4WV/xOUfVtbYsE+pr/JAECfks1UWzJBXO2UP1eVRdg4R8lukqqrPOMdOyxZvWlmUSvc90R7oukpXVz2k90pWQjvghCWp/RBJ2xE/EzCHwbSf8161GEk24GzdLUuGco+paj4Yn5I/40RGHoLWOeGNHRF/yS6dtw4F71SiIDt44EezflvHvBqdvnLD1r/jFQZL1XH9X1uMaz30NmTNgtWZ2zdXr3EQsX+S3i1AfwFZ7c6VaZTEA86azpksRrFqvt62NMuvh5VcrF6Xb15ik0KjuSOu+RtOOkEP0edBGeCmIl6UI3gr2Qrgli+6fgujBeSucuhekYiy3B20GN6XQ8zKm13ZDB+aOWYpSr0qnWcSbzgTKy4IMGGG7Q4uZAE9CUf5CCpIwZjZy1nZES3/E00jXP0GyBZVIJhDdk7015DPJFMbFgJipUDTq5TQdzwoZbFyq3iKARy4s9nFoNEwCE3TzoOYFqhkGQyGm1cV4fIejzDucsegEiYzSmfJlKIpavXiRFOfss1y19QTXdsRz0KtEkTsSaK1xE3IO0M4NjgKUVHJQQl4Oe1pwsKicAbh3AHxn3AXaItgoUCKXPCyUFwXjjZUSiwFcoQRnaWHJ3ZO7YYtAjsA5aqvSfjg461bjn/K2t/FuSyTLTt0uUASbiWxcOJKZCJ2yR+wMijAmVXYBCB0LI6wVPLcCAPnKCONYMKFkJG8E/omthhAelWBDyIJEQW5Kgnx4TvmlNdvWY/lH4vuNfS5jA1BzdQFaT+NMoL/6agXKK1h5JQtZ/YdlR8GV0l7padXFuPBSTUBf6Zh5Ii5dHkM0qqexLxl3qPuUfxbxvckydoamfhonGk0HGlZREuveDolbEpTmpT/n+Ii2ueqqvoYvhsOnJPqbOeh0+TIuHScqLWXTDHE95xiqZVu9G5dMxOFwODzdvcBh7lb1EpOJSgT8bRacD/9rGWcZ7QgdBWKYV6u+zZoLvr2it3lVu9n7+/XiY77eMb7YcIBiOByGOnV/ohKh0ljIbCe47dhAtCPiLRnSVOupnqymk5cPHX/V+pWe1Nu8KHraKBZWj/qN6v1q8wZVSXXUfw+NwyHKed1qtFsw5lh8u/ka/eFwWDw3lZvUzIayd4s2vPGWFxtVea8uK/d7ojriW1H1NTo4P6HtVH20S9myPGcP1cVu8z6f/RGnImkd8Z2i6tY+y2cv9qlY64g07Qj9XVZliqQy77NMWUd8K9bjGiePs3QpS8RZr+7Ysu7JzPu8TNmyPOfRcNPajqgjb9t2WvfOWkckakec/AuzO5/ns2ywHvs8+Sn/2BGpkIwdkXKrcdCBvgPTtq+Rjh2Rso7w82bJ+dA6On/d+zz5lyBtf8QZ+yxXbetez9c4vY74sSNSIZX8EUn7I75VVF0qPsu0/RFnHFW347hGMjoiTTvinKPqplsFJzyz7mucXkekbUecsURA2zjL5pyuU5G0P+KsY6jaRtXdVSJ0eh2RtD/irCWi7UoQax2Ris8yTTviW9GrDI/T56FK2o44Zw+VahlVV83XSMKOSFkivlXvszk3/FSk7Y9oe1UTQrY1CJpzw09F0v6I78RTLPbJdUTadkTbqJOE6LS1gZLREUm3Guc8Gt72kqYSQ5W0P2J68suzO7vmqktFR/zYEafmZ1xjG9TJvzC7I9vm4vzxR2zBWc/ya6t2f+IjtuCsfZZt6157sZPREW0F+oe9k0pe7LTtiDP2WfbbftnXdkRbV+feSdsf8f3GNU4/9pm0P2KdCv4s0W2zqr3JnX8i0vZHfKMM/+txjdPriLTtiDSrtRXcNhtKMj7LH4k4DD/zNQ5Cywj3pGhrAyVjR6Tsj9BtI9MSoq1VPK17nz92xId8w95nAnZEyq3GtO1VTYi2+SPWPssE4ixT1hHnbEa05mUM1XKqQU9fejT+vm6E4mob/9569c4rtPLvNV6rP/V7b1q3pP0R0zOOqlN/miWf8DKGSuW3IIYv79WoViFrBr/muG5e9EdZcl1w62X73mCpEFGqbpszjcpqka5EdUTnsllyPnTbtngv8lBdTX4XKuTSkVQzGjDLBybjpvOZlUQOQBIYoYRQjkzuxjOh3N2tnHvLfRIXLJx2s7hGm2AgM6he0uIPkVOCpCWMt9sjTN1M0cOl5LvyWW4ESyllXPorQc45V51vWfdXeahUCIJw9IBC5sHOnUWb50o5JL4dBA2+MGh7t1ji4xQXVhQ22NIYI1iKwo6oUMjOATgDBpEC47i8mRsZ/D0KM5NBV1IlMhRiSEABnyXC3jhz4+7bBgX+sHde5qFS6PJ7LC/dTJlCuCgRw9Afzx5m7C5QwyBID+isRAs0KA1a6tyYTsALwWR6HDz5blnpCCcCj/+QZyesIiNuyq5TUQAkAgm7oN+kJRWv5Pdd4+Pk6JN3xXbHL5oln1DPDV/rCBwFSQ5ReJoZGUhY0Z8xomCnaBq/3wBxgT6yQIJEYOFNFwIBUeiiCF747k1c2FP0tIkLvPpHY1EgI87ZdOJaYJJA4q0UbAzP6JXVc/ou8Hucc87b7m656tY3Q1cPtZpWcWRqqqfT+FpNl/H/2iGq4jagtY6L+AEsZfBxeT9Yv46tUJWLudpuuuTQ6y3V6ukQ8c9EwTTmbWlMUm091+RonPMMnh2j6r4yrtH/2AM+sfaMfcDfkHUM1RckYm+ku5L8eUfVtfSv1a2GSOGUE7UjPM0IaXaWpgQTIfbarasb/REqGw5fuAZOxRs/5smRcV1z6aJtNBHn2Pa56ktm2wzUTaOOqFaAbSVH3wQ7HJKXlddMu+TkdQtc1fWUbSQiWpZPK8DOS1HOv/CIB3j6aZRvesQN19QvkJ5L0qD6qqx1bgJKtD11lMOilUREyzKvTlztQKf6ef168rroIzoT5aufint+WZTCjxkOczeuJEK7tnkhU+C+koiWOqJWjsOibbf1O2CHlwoG59xq7KAjqsFNGagaejwt6VmWy2hNru2Is5wMXEtEOx1Rj312U3AFnD7YcyO1RFydpY7YtdUAeEjhZtgU3GRvedIR5ygRu+uIr3ix/+ucs47YwY54io9IQUd00rTmZRXp9736Gims5RfFsu18tONQ64jpd9ERB1+nKw7Gvh2QbQ4vKy81yHXhx5de+cW/DbS6AlCLbUJtpmrh3x/yUYtOndNNvdUETz7Lt+/ECijQaouPj2gvny/Ex/tov3i+QvH0tF/sEl72BTviYINMOPSTYaivwL87ouNgYn1Nqr860CyG00Sm0Rf/6urHF88XMJDDznoDHw9TCCL9vEf15M3+oIo59dZDE6+3jcgyr1yTOnv71aglYrPPcpoXwMP7+kjL+njVds/BIM+BJQ/BFXb93IsqmOT5xF5tDlzMY1RqXTj2scCF9TV7veW/nZ9fvWCXVmNW/T2cjqDhuD/EZUnWU0l6QiglOjaWBJboV2W8EzooCAsmpx25/NbPiTUJ9ML73soJp7kKyrqNFyl4KOd+TlaheLgBmMZ9ZdzXEDIIwr5CoomzUixIkPYiBpD7AICjBZKyJAQYpHvtemYVPybWMwzA3fIVjklKrIvWfDSu8Sf/rdyw2yHyfSxpjt7Q7f2yR9eWSGlBrO/JaDPraQAnwJAiGngUmI+sQGV6xFaAYzkjrwSNFiTipuYOVKFYzJQgLj2AIeC4r/QkaOqRZtoRsnUTUobix4hygwpMUUfMCjHPeg8kM849WicscgESTVCFFU5dZ0GDDtJn10NGxnsIVjEGVcieKW9uZhPby33fDWOIeAzdRQtj8hzQF8oGDRdxXw4+2JmwOA4KWfTUb0VsURY+WM8FAXSCgnKO7Mpx3DZIF2UjHxT9Mia01b+kzWQY4G8BVPBbidhsR0wKLCkzZAxxrDIZIVSQgVVQZtYfGmuDDP1ArOJd1T03c4yymMig5X3O85nMfJBBSvP7QXHIbOFDvxKAZWalG1o0ECzA4612wpWjYAuPlpwMtlBk+FYHT0KGC0v5hoDKHeyIauzzoDpChODuROFKi5q4F5x7ROgjEwTv7o0wGL/4SFYO50LSCLBvBOOfsHIPEqNGYbTEKEvTqYUHmJwz5DOwcd+CqN/P50L22KNBEIZYB3VrJcqw7PHcuVnUEUvo9Yq7csyzCXLQLOwt4wD9QyURQZrCCY/DHgzw18uB4I/6Giq4fCZcIGeYdPCX5tJANibvA8igyyBcPOoYgwe4L0SpM3TGIkicENPo8qETlgIpXpkY044Wo8hHiZgGJqbxrYWsD8C/hZhg5h6u41VEO4lnWnb5bpp5YTzaWxs2GBq7tBqHzh+BDgtGJsk2aBwxWcsB+plBHeSlE8IVGnThAVYojUKGzMTCTqHEHEIOj8i/OfRzO7/xhQYIRhHTvcj8L23D33pfFayZkJFBZjawoVExEZcu2DBBJkMI0MmlRE+GB4+of1nkWZScXAbvYizMNL4tu5PAYcQS8cUZfGRHqHyUX5bOOZaMuvDCObJRBy0ze3nju1yYeFZG/jYALlrx85JtVBDBBluwcKqY9ocMhQ1OuHkYh1VUCSYoJhnsb0YL4Rogfm/A9OzYhqtgnegGGWxmZLB5p2d8MNko3+B33kFHHDx/BEtrPQMLqQzwAkzPd7rQYclLs7JSCWGu4K+JRrhBA10J9lKWczMx2saIb9Dl3E2MKL2NRwC4EYLBC2GUAd+F9b5S8JJ9p6uQCisDFVrNHCuzZC+FiPZHeTmXsBJz7eMnO8yELoVTZlWl3Ihz1PjOglnJsReXLztHH9kREzcx3vZ1OV/Fw07GUqCQYDrgxQMs7+cWrGAYC7Ncr5g1vRFKGdBixELI6pw6uQcrerIjyq5niLPlpJgLDfGsH308GsiotZZO+HgVvQ0UNNEvA87dX1ipuvpBlG96dF+xI5LwUL1tuviVibcN+q68056imH3IPcXwqK2QD/HvZjviLfetI49WvVY3LGLxjq+EoA0y8JpdWo1UctXFS7PdNf+E5x7gnvjIH7EXdqlsrMwnQh/ZSUdUc7yTGOlKlMFN9W+jHZE6O9gR6xwzh7MjWsApVOItT32Nc5SI3VuNw/U1WvCYqER84I9ImHGs9g46Ipm82E3Xczo82RHN8sTpD4NdG+vtdETd10jCskwvqq5irSNm9yZy8/D696Eq3RvcbZZsTayQeah/Y63y4RDrDlU7iTi0z7IFSVTiLbVELHvXtqJf/3vzfD/IZsFOVPXKh0MndpivUeuIhxTsiHHKEjFtdVUTwA5FZ+1namVHrPNiJ2FHJMqZ9jWqaJP6vu6iI5Loa6QaVXeefY2KXfoahx7XaEESYvmWg/ssD0idp3QnHZGCz7LfdhDjOLQb10iLHbzY61jsJHqfifJRfETq7OSPqKPzU1DYrdczPg71uMaZ6oj2fY2nOV0p6Ig6/UVyfE874nBxli14kXQ7Jb5ZX+NVztsfNnHOdsQOlmVKY5+J5qo7Zx2xy2h4QmOfSbjS33LOdsSZ+ywvLpolSXDOOmIHOyIln2WinOm4RsVO/oh0fJapRtVVOuJM4yzb+yNS8ll2U6jEW87ZjtjFskyor3GV5rdQnrPPcgeJqNfXSMJnmeglP2d/xC59jbVlmYKOSEJRveXb9TWqrANJ+CyvN0x3T4BztiN26mtUJ5ro1zMJvp2OqP4m4Y+4SPOan7M/Ype+xsF8ltpKUPZlyMPL+Aep3kRDKHpdCS1f34O46KZtDo/+28iPt3JneP5gM81sOR7Pv80xs9kf4a2G/qsDNioNunkaALKRcbq5mqi65vdvx9KyjQlrQL1/Hs/UOQhbScQ6x8wBdIQa5mCGJiaq01rFhG4kqvXd4q9ihazjonDVm9UOLp8q9VdfxdXjtFZXqoip3VS9fRwIC1oUCjrT5VT7+kCgRsVVvT8hF/3n43XWu2kN+kpfrA8U85pdB1utS1cdtD76dFnvpEdFuI7PhAAFq7X0fWRH4FDqYVEfL37IxeKXfK6E1+BKX+ipjk+fTlQHW21S1S0+6xd+Va1bt/x3Kmhg6QH0pKqovqpWtavenVrM+WKlgDNQsPwkWnmX3ufasty/z1IVuRfDbkwc5JCCiDl4iKZClJqQqX9niL0IbMOsXgjWlVpQaVw/VzM2PfoTRDHS4lZoFDHvyiATQQETKg53ODEiqJhZY+Jm2RRg9ghzYWOWong8gzjTcQ1aO5uipFnGE0dx5Wq0wOSJjAoieBkoKBZBlYjVVRMO+JaUu+w5hXhfXZuP7AgaGpujmpGrKqnCXeElBcuBULMIFmM6m3AxFsEbpCoNnA5ycRdYMIcLZJEZX8SqPF8K4WAQ1GVPaKRspAMFa0WQTxeKEf7cEltypMuYpu8D6lajnR1RW5YH8FmqgILQoHEo7n0xzaQwEESQhb1lQBtXBfbdQJzF9HOx9plnCmO6Hzry11T0w8qiYooZv+4FgB8OM9DFiC4NAT5KkVu0PlNW5AOAnliEUdaNSX9iminPZAMgX9NFzM/Dd4pv8ykAjqGPNOMgi454iIKhrMutcIsQL0TPqcKiMcMM7HB9UT7SESKQwJnL+oUM0ojLEoKXJsydgGDlTWHMjc6HFvqu6DpSIbYXfzMpTRAsxNCQ5wz7AZxYmCBsmAQJUDpQmQmyGGWWBWM8lClu1u/CY1xDlwMPi6nOb/sfZpHYxR9Rj4YfIH+ECiYX4jKQsb3HTlihFF1AKoyLBgNaUQRNhgVTTCKpWfMQhUQVfs1yEVOG9YNeoOvJoIKKuaIGhUQ3+T1/kEZAD3FxazPZwcfMR4kSwY2hmBnLpPExqJjMDGg8IsgkyvgxMqhKR1gk7JpOmDhHrDMbFsTCxMxlAKJUubuRpigkGAxV/suPfJYksDB0WRjj0XfL+RwySfzgTAnk0Ap2bloUTgcrHu+dCiqm4ERLXSNUEURuhBtRP4srrHW75Zh0XHZ97sBnJjc3i1hxg0AGrXO2ulBVSirELo9+5yOwIv/wu7xLX+Ng+SN8bodG3Jv5vRX3/tc02F4wKJGdDiMI41uu1j3Cx5iiDAAFCUEivxL5YMj9zOW2cGgMilwFf9kD6P8COZTi3vlu6CIHM7QGLwNnbigBKMbQO+HkCHXoC0Gkgvk1WgSTx68vcTwQQLizaPu3Xe78isn/yAWZ3eSj3oMMsdIk4NY4JVy8Bw9FNTz/kc8SnSgs9pFvYrI7kvHTyP0SJusGiSY3BmP6Qo5PL0XMrObDDXpyBUFAO5Suh6E/7GKsCcWqSwCRWTIrZKfiMTuhWzC5wjHqX/E2PQRgMuOoBBcuGk8fsIs/Ym1HvG/c7srU6qpDwbz0Xve1XHkbM3YZD4sOyIuF0lZ1WXoJdhrt/BEAG3ulJNgLYB6pPjMAs9VW+0G9eLf12lhwyAPod1kBc39peawBBlXLwwwdCVZfRjsi6xUWxmy1XKlBPGJcpNpEk8kaBXa5+FNl+JLMHd+ZVMtiygXED/AerLaPdY/judVYmmiKvER6NVASBt0/0NcdD5atVoYXDtmDNOwvWPZh0PGGO95P5V+AgfGgYo9n4bWd6i7LC/toQXV50elDX8X+ULwdvjsAedFZrIIo5B9mr+RVP4poJ54AayWhrwcf9EoiO1mW1d8D6Ij2bD2Dx36a/cvGzG3O1f3G9/Fii/jvJ8tScTGsExB9jt1f0ve/5ubT032X3WOxD9DXaE/SUXXgiri8XXO1v3eIiTr3w7x0bw923yx4j8oUbWdHrOeGH6Cv0Z5tc9AfmXWrUVoxHBo9marJK6bVz2Si68d0Mp3o6Sr+qX/U05OJjhvWm1SFccvqEfeptogHitusN6+2iJ+oq7L1YzVd6elUVZ8bD1XtpDb+arGzjjhAX+M/Qy0RSwfQiclzN7AhRXlrtjxGc7P6dbP0H7Vl2UpHpGRH8KBZkgR1X2NS9T7T1GLvs4tl+WxHxETAJ+UxZTtisz8idXYY6Vrns3SLJYf8XeXzrYnJt9/zR6TOLjpiHWcZLWlkjrnS9vcTD/fv8fjp7zUzP8Y6vCx9evr+43njl4/ncrP+fVn29sNf7/3yMa+u53nqiF18lut1ulwYDrPrsWV7PR7Ff1/9G59cx2dPD47DuNfxz+tH/Lz6fRTVZze2rt9ny+/9ffN4/sz4qGrzqmTzXpv2rfZ3VUaR89QRu/gs13PDF2BDHAk6JYnO+/RnbEfsoiPW63TF3ueoGcPyQ+Sjsc/U2cWOWOuIFHqfSXuozlNH7NLXWFuWKXioDjDctg8+GvtMnTPXEYnaEeesI3axIxJagydRztmO2H3ss25vTsxPHqq9s7uOSKLVSGKq4Vu+nR1RrdOVhFG3+NER+2aXvsbB4iz/M5yzHbGLjkio9ynT9JCtY6g2zulKnV3siKdcdRY9iNrMXONedwZjGOwr1lfqmUbTo4Xo/dvHx/c8Cdb/YkWV7/yraZz4pgqMi/dupC+oV713gkQXPpvHOPH6q3NmGBI9EvTeZd3IOj5i4YZmORxWodI2Tn60prAr5qWyMTa5a8HNvV1aVtqOxtWeHEB2vZcxVFr6rgRC40GyBBljnUEVshP6mllP4thStbi3ckpQN2410IHGwXBcdE773AHI30oVfmUsSLbS6/7KMmvgOMtx6vNHrYyEjOUgHrJ5GodEK7VQk6N+5N7QyvuLatrJ1qz7GoObvBwXcToF+WKOj4visZBxtpPJOchxmQ8MISuHaHNTx3OO8cJQ0SU5HAszFrl3ZDLfpUIhkYgCoGDu+q4wNu8LWq+GDjMsKe7oUfQLzq7jSu+DggFkWNjM3xmShLJaFT43aPzNr6jGlsVCI+NgRihdECk0cv9V1jrCV3MzyRXml808ixsBaNkFZgFizi5YMyzAO0IbNFWNwQiVEUHSLCdcPJaFvDSQ8aMoPNo+RonwcN8bOXQWgaNEVC0UmQ52jCiU4AHCI4UBhNhkgR+SQy4eMiMMCONxEZZ9lI7i3BodpP99kzEN74CH4sjeTdVsMc8I27Ib+bRO18AJyhlNkGMfvJkbhGCCF2aMQBQU2hsMY1F6tKhvGUBYSyZbBS+GJr+1v3SQwkFAnARPdhQlorgAclnflX0EcxeVgAav4712qEJHsC/A9chqlHGenhxeAFK4tp4M9IzMZFCMaGxULbqQvuiPOkRh4WWWNc/jsKhWpllaxJlRrXiKj7gpGReohBAr7DyWmijIORXMQdwqotzeGEmMWbC3OiZ6sBnaDt7mShYqGI2Uy5uAziP99tQfE8AkiHmpHRXOEpgoeYYEqcuuR4n0u2MwzqDu+FviJfWW4HMhUD0SKdEFm1HmC4GSMUQdMQ0WnCBN9nHOhI/N0zgw52lEVEzbxkque59yOY0ZDQA68fSX62QFSv01qKagL6b6alllO4gbXcUPiekXqtQGMfFCTMJwVaVRWCkdF72Pl/AiJj2Iswbiq6o3r9Tz5gDqYhk/JOZdmFY5Mnz1mbraVl0sfTGIXZBVdTvin5hRIf48ZXY4HmcsEa2XWv5s7FMdr8luZn9ZvlupY6Nadd/Sguue4dY8ra/R0vw4CE2JSIdzloi2lmVKI10/JEGd8zaJfJaJRtVVfp5myfmg2/mnfnLebsVZ9z7b9ssSynmbaFRdlIi2ffqEkG1v7Xo0/Mct/MOaJ39Es/wEJBpVF9viZLXX57S+qgmt95lEJTaiLpsl5wO37DmvxzWS0BGLNCNmoo5I4fLsyJts05+xzjGT7Nfzh2OTkB2RcF/jjEfDZdsvO1YUKUhEul7sizOWiE+92P8HsNsfg4XfcpoAAAAASUVORK5CYII=;" vertex="1" parent="1">
          <mxGeometry x="250" y="220" width="529" height="229" as="geometry" />
        </mxCell>
      </root>
    </mxGraphModel>
  </diagram>
</mxfile>
